PathFileType	4	(x/y/z)	A01_PREF_T0015.trc
DataRate	CameraRate	NumFrames	NumMarkers	Units	OrigDataRate	OrigDataStartFrame	OrigNumFrames
240	240	4	48	mm	240	253	288
Frame#	Time	TOP_HEAD			R_AC			L_AC			R_ASIS			L_ASIS			R_PSIS			L_PSIS			SACRAL			L_IC			R_IC			L_GT			R_GT			R_LAT_KNEE			R_MED_KNEE			L_MED_KNEE			L_LAT_KNEE			R_TOE			L_TOE			R_1ST_MET			L_1ST_MET			L_5TH_MET			R_5TH_MET			R_LAT_ANK			R_MED_ANK			L_MED_ANK			L_LAT_ANK			L_HEEL_SUP			R_HEEL_SUP			L_HEEL_LAT			R_HEEL_LAT			L_HEEL_MED			R_HEEL_MED			R_SHANK_PROX_POST			R_SHANK_PROX_ANT			R_SHANK_DIST_ANT			R_SHANK_DIST_POST			R_THIGH_PROX_POST			R_THIGH_PROX_ANT			R_THIGH_DIST_ANT			R_THIGH_DIST_POST			L_SHANK_PROX_ANT			L_SHANK_PROX_POST			L_SHANK_DIST_POST			L_SHANK_DIST_ANT			L_THIGH_PROX_ANT			L_THIGH_PROX_POST			L_THIGH_DIST_POST			L_THIGH_DIST_ANT			
		X1	Y1	Z1	X2	Y2	Z2	X3	Y3	Z3	X4	Y4	Z4	X5	Y5	Z5	X6	Y6	Z6	X7	Y7	Z7	X8	Y8	Z8	X9	Y9	Z9	X10	Y10	Z10	X11	Y11	Z11	X12	Y12	Z12	X13	Y13	Z13	X14	Y14	Z14	X15	Y15	Z15	X16	Y16	Z16	X17	Y17	Z17	X18	Y18	Z18	X19	Y19	Z19	X20	Y20	Z20	X21	Y21	Z21	X22	Y22	Z22	X23	Y23	Z23	X24	Y24	Z24	X25	Y25	Z25	X26	Y26	Z26	X27	Y27	Z27	X28	Y28	Z28	X29	Y29	Z29	X30	Y30	Z30	X31	Y31	Z31	X32	Y32	Z32	X33	Y33	Z33	X34	Y34	Z34	X35	Y35	Z35	X36	Y36	Z36	X37	Y37	Z37	X38	Y38	Z38	X39	Y39	Z39	X40	Y40	Z40	X41	Y41	Z41	X42	Y42	Z42	X43	Y43	Z43	X44	Y44	Z44	X45	Y45	Z45	X46	Y46	Z46	X47	Y47	Z47	X48	Y48	Z48	

253	1.0537	786.21	1806.9	339.06	597.89	1573.7	582.03	543.18	1583.4	125.27	586.4	1104.3	555.56	588.74	1061.8	201.96	368.58	1116.2	426.11	379.89	1111.3	295.84	358.65	1084.2	358.27	554.61	1180.4	160.86	559.16	1211.5	563.87	539.79	981.12	154.95	514.28	995.85	589.22	466.29	587.99	522.3	493.38	584.96	391.79	702.74	594.89	356.71	668.12	606.98	202.3	591.47	66.705	432.64	876.01	112.94	218.01	506.85	55.249	386.1	802.76	79.407	278.13	761.61	75.38	154.29	480.37	47.737	520.66	374.86	130.17	492.27	382.01	132.44	389.1	670.51	159.33	277.33	636.4	152.15	213.8	558.6	92.641	258.19	272.03	108.87	438.99	566.11	65.39	226.39	275.38	85.507	474.09	581.48	62.595	287.22	276.97	80.538	413.69	351.59	424.33	525.19	421.68	406.7	539.92	415.01	333.32	522.11	357.71	341.98	515.72	459.69	862.48	564.57	530.76	874.69	575.22	525.39	783.24	564.38	458.14	773.33	552.6	717.72	526.84	206.96	662.21	524.1	200.02	659.35	460.83	206.36	712.64	470.65	211.72	650.95	863.15	195.27	585.71	847.6	168.4	618.08	779.06	180.13	678.06	794.28	202.75
254	1.0578	791.66	1806.5	338	602.86	1573.7	581.6	548.17	1583.2	124.9	591.13	1104.4	555.28	594.43	1061.4	201.67	373.72	1116.2	425.27	385.31	1111.1	295.09	363.85	1084.1	357.5	560.21	1180.2	160.52	564.01	1211.6	563.49	545.38	980.63	154.62	518.73	996.03	588.88	468.35	588.47	522.21	495.51	585.22	391.71	707.44	594.27	357.16	673.29	605.92	202.59	591.53	66.68	432.66	892.49	116.82	218.44	507.04	55.186	386.14	819.75	81.406	278.14	779.29	76.644	154.1	480.55	47.812	520.66	375.31	130.87	492.21	382.61	133.05	389.06	685.64	158.24	276.87	651.97	150.44	213.19	575.38	88.762	257.05	272.51	109.94	438.9	583.71	61.767	225.28	275.76	86.56	474	598.91	59.243	286.18	277.33	81.576	413.59	352.95	425.18	525	422.95	407.34	539.82	416.08	333.95	522.03	358.81	342.82	515.5	463.44	863.06	564.3	534.6	874.89	574.85	528.74	783.47	564.09	461.42	773.92	552.42	724.73	526.89	207.37	669.34	522.89	200.2	667.86	459.56	206.38	720.89	470.6	212.01	656.14	862.46	195.31	590.97	846.95	168.26	623.23	778.4	180.19	683.17	793.59	203.02
255	1.062	797.09	1806	336.95	607.85	1573.6	581.16	553.18	1583	124.52	595.86	1104.3	554.98	600.15	1060.9	201.35	378.87	1116.2	424.44	390.74	1110.8	294.34	369.06	1084	356.74	565.84	1180	160.18	568.87	1211.6	563.1	550.97	980.08	154.29	523.2	996.18	588.55	470.43	588.93	522.12	497.67	585.47	391.63	712.11	593.58	357.59	678.47	604.81	202.86	591.59	66.657	432.69	908.71	120.82	218.94	507.22	55.118	386.17	836.48	83.576	278.23	796.76	78.113	153.97	480.73	47.888	520.66	375.76	131.56	492.14	383.22	133.66	389.01	700.63	157.31	276.42	667.43	148.92	212.58	592.07	85.154	255.91	272.98	111	438.8	601.2	58.438	224.18	276.14	87.599	473.91	616.21	56.173	285.16	277.68	82.598	413.49	354.34	426.02	524.81	424.23	407.97	539.72	417.15	334.57	521.94	359.92	343.66	515.28	467.2	863.6	564.04	538.46	875.05	574.46	532.13	783.67	563.79	464.72	774.48	552.25	731.7	526.92	207.77	676.45	521.67	200.36	676.34	458.32	206.38	729.09	470.56	212.3	661.32	861.71	195.33	596.21	846.23	168.1	628.38	777.66	180.23	688.26	792.83	203.27
256	1.0662	802.53	1805.5	335.89	612.86	1573.5	580.7	558.21	1582.7	124.15	600.6	1104.3	554.67	605.89	1060.3	201.01	384.03	1116.1	423.6	396.18	1110.4	293.58	374.28	1083.9	355.98	571.51	1179.7	159.82	573.73	1211.6	562.71	556.56	979.47	153.95	527.69	996.29	588.21	472.54	589.37	522.01	499.84	585.7	391.53	716.75	592.82	358	683.66	603.66	203.09	591.64	66.635	432.71	924.65	124.94	219.53	507.41	55.046	386.21	852.95	85.905	278.38	814.01	79.774	153.9	480.9	47.966	520.66	376.21	132.24	492.06	383.81	134.26	388.95	715.47	156.55	275.99	682.76	147.58	211.99	608.65	81.813	254.77	273.46	112.03	438.69	618.56	55.398	223.08	276.52	88.624	473.81	633.35	53.379	284.17	278.03	83.605	413.37	355.74	426.85	524.6	425.52	408.58	539.61	418.23	335.17	521.84	361.05	344.48	515.06	470.99	864.11	563.77	542.34	875.18	574.06	535.54	783.84	563.49	468.06	775.01	552.07	738.64	526.94	208.17	683.56	520.46	200.51	684.79	457.11	206.37	737.24	470.52	212.58	666.51	860.89	195.32	601.46	845.45	167.91	633.51	776.86	180.24	693.36	792	203.48
